0
SECTION
2
HEADER
9
$INSUNITS
70
4
9
$ACADVER
1
AC1014
9
$HANDSEED
5
FFFF
0
ENDSEC
0
SECTION
2
TABLES
0
TABLE
2
VPORT
5
8
100
AcDbSymbolTable
0
ENDTAB
0
TABLE
2
LTYPE
5
5
100
AcDbSymbolTable
0
LTYPE
5
14
100
AcDbSymbolTableRecord
100
AcDbLinetypeTableRecord
2
BYBLOCK
70
0
0
LTYPE
5
15
100
AcDbSymbolTableRecord
100
AcDbLinetypeTableRecord
2
BYLAYER
70
0
0
ENDTAB
0
TABLE
2
LAYER
5
2
100
AcDbSymbolTable
70
2
0
LAYER
5
50
100
AcDbSymbolTableRecord
100
AcDbLayerTableRecord
2
0
70
0
6
CONTINUOUS
0
ENDTAB
0
TABLE
2
STYLE
5
3
100
AcDbSymbolTable
70
1
0
STYLE
5
11
100
AcDbSymbolTableRecord
100
AcDbTextStyleTableRecord
2
STANDARD
70
0
0
ENDTAB
0
TABLE
2
VIEW
5
6
100
AcDbSymbolTable
70
0
0
ENDTAB
0
TABLE
2
UCS
5
7
100
AcDbSymbolTable
70
0
0
ENDTAB
0
TABLE
2
APPID
5
9
100
AcDbSymbolTable
70
2
0
APPID
5
12
100
AcDbSymbolTableRecord
100
AcDbRegAppTableRecord
2
ACAD
70
0
0
ENDTAB
0
TABLE
2
DIMSTYLE
5
A
100
AcDbSymbolTable
70
1
0
ENDTAB
0
TABLE
2
BLOCK_RECORD
5
1
100
AcDbSymbolTable
70
1
0
BLOCK_RECORD
5
1F
100
AcDbSymbolTableRecord
100
AcDbBlockTableRecord
2
*MODEL_SPACE
0
BLOCK_RECORD
5
1B
100
AcDbSymbolTableRecord
100
AcDbBlockTableRecord
2
*PAPER_SPACE
0
ENDTAB
0
ENDSEC
0
SECTION
2
BLOCKS
0
BLOCK
5
20
100
AcDbEntity
100
AcDbBlockBegin
2
*MODEL_SPACE
0
ENDBLK
5
21
100
AcDbEntity
100
AcDbBlockEnd
0
BLOCK
5
1C
100
AcDbEntity
100
AcDbBlockBegin
2
*PAPER_SPACE
0
ENDBLK
5
1D
100
AcDbEntity
100
AcDbBlockEnd
0
ENDSEC
0
SECTION
2
ENTITIES
0
CIRCLE
5
100
100
AcDbEntity
8
0
100
AcDbCircle
10
74.746589999999998
20
-21.967210999999999
30
0
40
1.1000000000000032
210
0
220
-0
230
1
0
CIRCLE
5
101
100
AcDbEntity
8
0
100
AcDbCircle
10
-30.031410000000001
20
-68.787210999999999
30
0
40
1.1000000000000032
210
0
220
-0
230
1
0
CIRCLE
5
102
100
AcDbEntity
8
0
100
AcDbCircle
10
-146.66140999999999
20
8.6227889999999991
30
0
40
1.0999999999999943
210
0
220
-0
230
1
0
CIRCLE
5
103
100
AcDbEntity
8
0
100
AcDbCircle
10
-74.751410000000007
20
-21.967210999999999
30
0
40
1.0999999999999943
210
0
220
-0
230
1
0
CIRCLE
5
104
100
AcDbEntity
8
0
100
AcDbCircle
10
30.026589999999999
20
-68.787210999999999
30
0
40
1.1000000000000032
210
0
220
-0
230
1
0
CIRCLE
5
105
100
AcDbEntity
8
0
100
AcDbCircle
10
140.00658999999999
20
44.542788999999999
30
0
40
1.0999999999999943
210
0
220
-0
230
1
0
CIRCLE
5
106
100
AcDbEntity
8
0
100
AcDbCircle
10
59.406590000000001
20
39.612788999999999
30
0
40
1.0999999999999943
210
0
220
-0
230
1
0
CIRCLE
5
107
100
AcDbEntity
8
0
100
AcDbCircle
10
-51.101410000000001
20
-3.9872109999999998
30
0
40
1.0999999999999943
210
0
220
-0
230
1
0
CIRCLE
5
108
100
AcDbEntity
8
0
100
AcDbCircle
10
-140.01141000000001
20
44.542788999999999
30
0
40
1.1000000000000119
210
0
220
-0
230
1
0
CIRCLE
5
109
100
AcDbEntity
8
0
100
AcDbCircle
10
-59.411410000000004
20
39.612788999999999
30
0
40
1.1000000000000032
210
0
220
-0
230
1
0
CIRCLE
5
110
100
AcDbEntity
8
0
100
AcDbCircle
10
51.096590000000006
20
-3.9872109999999998
30
0
40
1.1000000000000032
210
0
220
-0
230
1
0
CIRCLE
5
111
100
AcDbEntity
8
0
100
AcDbCircle
10
146.65658999999999
20
8.6227889999999991
30
0
40
1.0999999999999943
210
0
220
-0
230
1
0
LWPOLYLINE
5
112
100
AcDbEntity
8
0
100
AcDbPolyline
90
4
70
1
43
0.0
10
111.65566200000001
20
65.104212000000004
10
114.57966200000004
20
52.437212000000002
10
99.28166200000004
20
48.906212000000011
10
96.357661999999991
20
61.572212000000015
0
LWPOLYLINE
5
113
100
AcDbEntity
8
0
100
AcDbPolyline
90
4
70
1
43
0.0
10
85.486662000000024
20
6.8259120000000006
10
88.851662000000033
20
-5.731187999999996
10
73.686661999999998
20
-9.7945879999999974
10
70.321662000000032
20
2.762412000000003
0
LWPOLYLINE
5
114
100
AcDbEntity
8
0
100
AcDbPolyline
90
4
70
1
43
0.0
10
79.990662000000015
20
-36.826688000000004
10
68.620662000000038
20
-43.129187999999999
10
61.008662000000022
20
-29.397687999999995
10
72.37866200000002
20
-23.095187999999993
0
LWPOLYLINE
5
115
100
AcDbEntity
8
0
100
AcDbPolyline
90
4
70
1
43
0.0
10
91.838661999999999
20
-3.9261880000000016
10
88.693662000000018
20
8.6876120000000068
10
103.927662
20
12.485811999999994
10
107.07266200000004
20
-0.12808800000000176
0
LWPOLYLINE
5
116
100
AcDbEntity
8
0
100
AcDbPolyline
90
4
70
1
43
0.0
10
-56.37933799999999
20
-32.358788000000004
10
-45.996337999999994
20
-40.182387999999996
10
-55.445337999999978
20
-52.720988000000006
10
-65.827337999999983
20
-44.897387999999992
0
LWPOLYLINE
5
117
100
AcDbEntity
8
0
100
AcDbPolyline
90
4
70
1
43
0.0
10
39.463662000000035
20
31.764212000000008
10
42.828662000000044
20
19.207011999999992
10
27.663662000000002
20
15.143611999999989
10
24.298662000000029
20
27.700211999999993
0
LWPOLYLINE
5
118
100
AcDbEntity
8
0
100
AcDbPolyline
90
4
70
1
43
0.0
10
144.45766200000003
20
29.635211999999996
10
142.088662
20
42.417211999999999
10
157.52566200000004
20
45.278212000000011
10
159.89466200000004
20
32.496212000000007
0
LWPOLYLINE
5
119
100
AcDbEntity
8
0
100
AcDbPolyline
90
4
70
1
43
0.0
10
-64.368337999999994
20
24.966212000000006
10
-79.532937999999987
20
29.029212000000008
10
-76.168337999999977
20
41.586212000000017
10
-61.003337999999978
20
37.523212000000015
0
LWPOLYLINE
5
120
100
AcDbEntity
8
0
100
AcDbPolyline
90
4
70
1
43
0.0
10
-104.45503799999997
20
26.48221199999999
10
-107.37943799999998
20
13.815911999999999
10
-122.677038
20
17.347612000000005
10
-119.75263799999999
20
30.014212000000001
0
LWPOLYLINE
5
121
100
AcDbEntity
8
0
100
AcDbPolyline
90
4
70
1
43
0.0
10
-54.474337999999989
20
-24.272288
10
-51.110337999999977
20
-11.715287999999999
10
-35.945337999999971
20
-15.778688000000001
10
-39.309337999999983
20
-28.335787999999997
0
LWPOLYLINE
5
122
100
AcDbEntity
8
0
100
AcDbPolyline
90
4
70
1
43
0.0
10
-147.736738
20
11.924011999999999
10
-163.173878
20
14.785112000000007
10
-160.80481799999998
20
27.567212000000005
10
-145.36773799999997
20
24.706212000000008
0
LWPOLYLINE
5
123
100
AcDbEntity
8
0
100
AcDbPolyline
90
4
70
1
43
0.0
10
43.686661999999998
20
28.75421200000001
10
58.85166200000004
20
32.818212000000003
10
62.216662000000014
20
20.26091199999999
10
47.051662000000007
20
16.197412000000007
0
LWPOLYLINE
5
124
100
AcDbEntity
8
0
100
AcDbPolyline
90
4
70
1
43
0.0
10
-89.508337999999981
20
-16.173488000000003
10
-77.371737999999993
20
-20.832287999999998
10
-82.998137999999969
20
-35.489487999999994
10
-95.134637999999995
20
-30.830687999999995
0
LWPOLYLINE
5
125
100
AcDbEntity
8
0
100
AcDbPolyline
90
4
70
1
43
0.0
10
-157.52453800000001
20
45.266212000000003
10
-142.08743799999999
20
42.405212000000006
10
-144.45653799999999
20
29.62221199999999
10
-159.89363800000001
20
32.483212000000002
0
LWPOLYLINE
5
126
100
AcDbEntity
8
0
100
AcDbPolyline
90
4
70
1
43
0.0
10
-33.486337999999961
20
-6.6023880000000013
10
-48.651337999999988
20
-2.5389879999999994
10
-45.286337999999979
20
10.018112000000015
10
-30.121337999999991
20
5.9546119999999991
0
LWPOLYLINE
5
127
100
AcDbEntity
8
0
100
AcDbPolyline
90
4
70
1
43
0.0
10
-129.05493799999999
20
8.4615120000000044
10
-144.49203799999998
20
11.322611999999994
10
-142.122938
20
24.104911999999999
10
-126.68583799999999
20
21.243811999999991
0
LWPOLYLINE
5
128
100
AcDbEntity
8
0
100
AcDbPolyline
90
4
70
1
43
0.0
10
64.368662000000043
20
24.978212000000013
10
61.004662000000032
20
37.536212000000006
10
76.169662000000002
20
41.599212000000001
10
79.533662000000021
20
29.042211999999992
0
LWPOLYLINE
5
129
100
AcDbEntity
8
0
100
AcDbPolyline
90
4
70
1
43
0.0
10
137.93266200000005
20
46.732211999999997
10
122.49566200000004
20
43.871212
10
120.12666200000001
20
56.653212000000003
10
135.56366200000002
20
59.515211999999991
0
LWPOLYLINE
5
130
100
AcDbEntity
8
0
100
AcDbPolyline
90
4
70
1
43
0.0
10
-48.344337999999993
20
11.355111999999989
10
-51.709337999999988
20
-1.2018879999999932
10
-66.874337999999995
20
2.8615119999999994
10
-63.509337999999985
20
15.418612000000005
0
LWPOLYLINE
5
131
100
AcDbEntity
8
0
100
AcDbPolyline
90
4
70
1
43
0.0
10
51.710662000000021
20
-1.1891879999999944
10
48.345662000000047
20
11.367812000000006
10
63.510662000000018
20
15.431312000000004
10
66.875662000000034
20
2.8742120000000071
0
LWPOLYLINE
5
132
100
AcDbEntity
8
0
100
AcDbPolyline
90
4
70
1
43
0.0
10
-69.026637999999991
20
7.5793120000000069
10
-84.191737999999972
20
11.642812000000005
10
-80.827037999999988
20
24.199811999999994
10
-65.662337999999991
20
20.136411999999993
0
LWPOLYLINE
5
133
100
AcDbEntity
8
0
100
AcDbPolyline
90
4
70
1
43
0.0
10
-39.027338
20
46.128211999999998
10
-42.392337999999995
20
33.57121200000001
10
-57.55733799999998
20
37.635212000000003
10
-54.192337999999992
20
50.192212000000012
0
LWPOLYLINE
5
134
100
AcDbEntity
8
0
100
AcDbPolyline
90
4
70
1
43
0.0
10
6.4186619999999905
20
-70.057208000000003
10
-6.581337999999981
20
-70.057208000000003
10
-6.581337999999981
20
-54.357188000000001
10
6.4186619999999905
20
-54.357188000000001
0
LWPOLYLINE
5
135
100
AcDbEntity
8
0
100
AcDbPolyline
90
4
70
1
43
0.0
10
154.24566200000001
20
62.977212000000023
10
156.61466200000001
20
50.195212000000005
10
141.177662
20
47.334211999999994
10
138.80866200000003
20
60.116211999999997
0
LWPOLYLINE
5
136
100
AcDbEntity
8
0
100
AcDbPolyline
90
4
70
1
43
0.0
10
-114.57883799999998
20
52.425212000000016
10
-111.65443799999998
20
65.092212000000004
10
-96.356837999999982
20
61.560212000000021
10
-99.281137999999984
20
48.893212000000005
0
LWPOLYLINE
5
137
100
AcDbEntity
8
0
100
AcDbPolyline
90
4
70
1
43
0.0
10
-123.80173799999997
20
12.475811999999999
10
-108.50413799999998
20
8.944011999999999
10
-111.42853799999997
20
-3.7227880000000013
10
-126.72613799999999
20
-0.19108800000000592
0
LWPOLYLINE
5
138
100
AcDbEntity
8
0
100
AcDbPolyline
90
4
70
1
43
0.0
10
122.677662
20
17.360312
10
107.38066200000003
20
13.828512000000002
10
104.45566200000002
20
26.495211999999995
10
119.75366200000003
20
30.027212000000006
0
LWPOLYLINE
5
139
100
AcDbEntity
8
0
100
AcDbPolyline
90
4
70
1
43
0.0
10
-79.989337999999975
20
-36.839388000000007
10
-72.377837999999969
20
-23.107788000000006
10
-61.00733799999999
20
-29.410388000000005
10
-68.619337999999971
20
-43.141888000000002
0
LWPOLYLINE
5
140
100
AcDbEntity
8
0
100
AcDbPolyline
90
4
70
1
43
0.0
10
-56.344337999999979
20
54.910212000000016
10
-59.709337999999974
20
42.352212000000009
10
-74.874237999999991
20
46.416212000000002
10
-71.509637999999995
20
58.973211999999997
0
LWPOLYLINE
5
141
100
AcDbEntity
8
0
100
AcDbPolyline
90
4
70
1
43
0.0
10
65.662662000000012
20
20.149112000000009
10
80.827662000000018
20
24.212511999999997
10
84.192662000000027
20
11.655512000000003
10
69.027662000000021
20
7.5920120000000058
0
LWPOLYLINE
5
142
100
AcDbEntity
8
0
100
AcDbPolyline
90
4
70
1
43
0.0
10
43.733662000000031
20
-64.027688000000012
10
32.631662000000041
20
-52.926088
10
41.824662000000004
20
-43.733688000000001
10
52.925662000000031
20
-54.835288000000006
0
LWPOLYLINE
5
143
100
AcDbEntity
8
0
100
AcDbPolyline
90
4
70
1
43
0.0
10
94.008662000000029
20
52.268212000000005
10
78.774662000000035
20
48.470211999999997
10
75.629662000000025
20
61.083212000000017
10
90.863662000000033
20
64.882212000000024
0
LWPOLYLINE
5
144
100
AcDbEntity
8
0
100
AcDbPolyline
90
4
70
1
43
0.0
10
65.828662000000051
20
-44.884788
10
55.446662000000018
20
-52.708387999999999
10
45.997662000000012
20
-40.169788000000004
10
56.37966200000001
20
-32.346187999999998
0
LWPOLYLINE
5
145
100
AcDbEntity
8
0
100
AcDbPolyline
90
4
70
1
43
0.0
10
30.074662000000032
20
5.9543120000000105
10
45.239662000000038
20
10.01781199999999
10
48.603662000000014
20
-2.5391880000000011
10
33.438662000000008
20
-6.6026879999999988
0
LWPOLYLINE
5
146
100
AcDbEntity
8
0
100
AcDbPolyline
90
4
70
1
43
0.0
10
95.217662000000018
20
47.416212000000016
10
98.362662
20
34.802211999999997
10
83.129662000000025
20
31.004212000000003
10
79.984662000000029
20
43.618212000000007
0
LWPOLYLINE
5
147
100
AcDbEntity
8
0
100
AcDbPolyline
90
4
70
1
43
0.0
10
59.710662000000028
20
42.365212000000014
10
56.345662000000019
20
54.922212000000002
10
71.510662000000025
20
58.986212000000002
10
74.875662000000034
20
46.429212000000007
0
LWPOLYLINE
5
148
100
AcDbEntity
8
0
100
AcDbPolyline
90
4
70
1
43
0.0
10
95.135662000000025
20
-30.817988000000007
10
82.998662000000039
20
-35.476788000000006
10
77.372662000000005
20
-20.819587999999996
10
89.509662000000034
20
-16.160787999999997
0
LWPOLYLINE
5
149
100
AcDbEntity
8
0
100
AcDbPolyline
90
4
70
1
43
0.0
10
-68.168337999999977
20
-1.9680880000000034
10
-53.003337999999971
20
-6.0314880000000048
10
-56.36833799999998
20
-18.588587999999994
10
-71.533137999999994
20
-14.525087999999995
0
LWPOLYLINE
5
150
100
AcDbEntity
8
0
100
AcDbPolyline
90
4
70
1
43
0.0
10
25.418662000000012
20
-54.357687999999996
10
25.418662000000012
20
-70.057708000000005
10
12.418662000000005
20
-70.057708000000005
10
12.418662000000005
20
-54.357687999999996
0
LWPOLYLINE
5
151
100
AcDbEntity
8
0
100
AcDbPolyline
90
4
70
1
43
0.0
10
-141.17633799999999
20
47.32121200000001
10
-156.613438
20
50.182212
10
-154.244338
20
62.964212000000018
10
-138.80723799999998
20
60.103211999999992
0
LWPOLYLINE
5
152
100
AcDbEntity
8
0
100
AcDbPolyline
90
4
70
1
43
0.0
10
-100.40593799999999
20
44.021212000000006
10
-103.33033799999998
20
31.354212000000004
10
-118.62793799999999
20
34.886212000000015
10
-115.70353799999999
20
47.553212000000016
0
LWPOLYLINE
5
153
100
AcDbEntity
8
0
100
AcDbPolyline
90
4
70
1
43
0.0
10
164.08566200000001
20
9.881511999999999
10
166.45466200000001
20
-2.9007879999999986
10
151.01766200000003
20
-5.7618879999999972
10
148.648662
20
7.0204119999999914
0
LWPOLYLINE
5
154
100
AcDbEntity
8
0
100
AcDbPolyline
90
4
70
1
43
0.0
10
144.49266200000005
20
11.335312000000011
10
129.05566200000004
20
8.4742120000000032
10
126.68666200000001
20
21.256512000000008
10
142.12366200000002
20
24.117612000000001
0
LWPOLYLINE
5
155
100
AcDbEntity
8
0
100
AcDbPolyline
90
4
70
1
43
0.0
10
-122.49443799999997
20
43.858211999999995
10
-137.93153799999999
20
46.720212000000004
10
-135.56253799999999
20
59.502211999999986
10
-120.125438
20
56.64121200000001
0
LWPOLYLINE
5
156
100
AcDbEntity
8
0
100
AcDbPolyline
90
4
70
1
43
0.0
10
-25.581338000000002
20
-54.357188000000001
10
-12.581337999999995
20
-54.357188000000001
10
-12.581337999999995
20
-70.057208000000003
10
-25.581338000000002
20
-70.057208000000003
0
LWPOLYLINE
5
157
100
AcDbEntity
8
0
100
AcDbPolyline
90
4
70
1
43
0.0
10
57.557662000000036
20
37.64721200000001
10
42.39266200000003
20
33.584211999999994
10
39.028662000000018
20
46.141212000000003
10
54.193662000000025
20
50.204212000000005
0
LWPOLYLINE
5
158
100
AcDbEntity
8
0
100
AcDbPolyline
90
4
70
1
43
0.0
10
100.40666200000004
20
44.034212000000011
10
115.70466200000006
20
47.566212000000007
10
118.62866200000002
20
34.899212000000006
10
103.33166200000005
20
31.367212000000009
0
LWPOLYLINE
5
159
100
AcDbEntity
8
0
100
AcDbPolyline
90
4
70
1
43
0.0
10
-98.362137999999987
20
34.790212000000011
10
-95.217137999999991
20
47.404212000000008
10
-79.983437999999992
20
43.605212000000002
10
-83.128437999999974
20
30.992211999999995
0
LWPOLYLINE
5
160
100
AcDbEntity
8
0
100
AcDbPolyline
90
4
70
1
43
0.0
10
-58.851337999999984
20
32.805211999999997
10
-43.686337999999978
20
28.742212000000002
10
-47.050337999999968
20
16.184812000000008
10
-62.215337999999974
20
20.248212000000009
0
LWPOLYLINE
5
161
100
AcDbEntity
8
0
100
AcDbPolyline
90
4
70
1
43
0.0
10
-102.71663799999999
20
17.324612000000002
10
-99.571737999999982
20
29.938212
10
-84.338037999999983
20
26.140212000000005
10
-87.483037999999993
20
13.526411999999999
0
LWPOLYLINE
5
162
100
AcDbEntity
8
0
100
AcDbPolyline
90
4
70
1
43
0.0
10
-75.628837999999973
20
61.07121200000001
10
-78.773837999999984
20
48.457212000000006
10
-94.007537999999968
20
52.255212
10
-90.862537999999972
20
64.869212000000019
0
LWPOLYLINE
5
163
100
AcDbEntity
8
0
100
AcDbPolyline
90
4
70
1
43
0.0
10
-39.463337999999979
20
31.751212000000002
10
-24.298337999999973
20
27.688212000000007
10
-27.662337999999984
20
15.130912000000007
10
-42.827337999999969
20
19.194312000000011
0
LWPOLYLINE
5
164
100
AcDbEntity
8
0
100
AcDbPolyline
90
4
70
1
43
0.0
10
125.775662
20
26.173211999999999
10
123.40666200000004
20
38.955212000000017
10
138.84366200000005
20
41.816211999999993
10
141.21266200000002
20
29.034212000000011
0
LWPOLYLINE
5
165
100
AcDbEntity
8
0
100
AcDbPolyline
90
4
70
1
43
0.0
10
39.310662000000036
20
-28.323087999999998
10
35.945662000000027
20
-15.766087999999998
10
51.110662000000033
20
-11.702588
10
54.475662000000042
20
-24.259587999999994
0
LWPOLYLINE
5
166
100
AcDbEntity
8
0
100
AcDbPolyline
90
4
70
1
43
0.0
10
-138.842738
20
41.803212000000009
10
-123.40563799999998
20
38.942212000000012
10
-125.774738
20
26.160212000000016
10
-141.211838
20
29.021212000000006
0
LWPOLYLINE
5
167
100
AcDbEntity
8
0
100
AcDbPolyline
90
4
70
1
43
0.0
10
-109.45683799999998
20
-10.745687999999998
10
-96.899737999999971
20
-14.110387999999991
10
-100.96323799999999
20
-29.275388000000007
10
-113.52023799999998
20
-25.910788
0
LWPOLYLINE
5
168
100
AcDbEntity
8
0
100
AcDbPolyline
90
4
70
1
43
0.0
10
-52.925337999999975
20
-54.847988000000001
10
-41.823337999999985
20
-43.746387999999996
10
-32.631337999999985
20
-52.938788000000002
10
-43.732337999999977
20
-64.040388000000007
0
LWPOLYLINE
5
169
100
AcDbEntity
8
0
100
AcDbPolyline
90
4
70
1
43
0.0
10
-164.085058
20
9.8688120000000001
10
-148.64793799999998
20
7.0077120000000104
10
-151.01703799999999
20
-5.7745880000000049
10
-166.454128
20
-2.9134879999999974
0
LWPOLYLINE
5
170
100
AcDbEntity
8
0
100
AcDbPolyline
90
4
70
1
43
0.0
10
-70.320737999999992
20
2.7497120000000042
10
-73.685437999999991
20
-9.8072879999999962
10
-88.850437999999983
20
-5.7437880000000074
10
-85.485837999999973
20
6.8132120000000018
0
LWPOLYLINE
5
171
100
AcDbEntity
8
0
100
AcDbPolyline
90
4
70
1
43
0.0
10
147.737662
20
11.936612000000002
10
145.36866200000003
20
24.719212000000013
10
160.80566200000007
20
27.58021200000001
10
163.17466199999998
20
14.797711999999992
0
LWPOLYLINE
5
172
100
AcDbEntity
8
0
100
AcDbPolyline
90
4
70
1
43
0.0
10
-145.40323799999999
20
6.4063120000000051
10
-129.966138
20
3.5452119999999976
10
-132.335138
20
-9.2370879999999911
10
-147.77233799999999
20
-6.3759880000000013
0
LWPOLYLINE
5
173
100
AcDbEntity
8
0
100
AcDbPolyline
90
4
70
1
43
0.0
10
-103.92633799999999
20
12.473112000000013
10
-88.692637999999988
20
8.6749119999999902
10
-91.83763799999997
20
-3.9388880000000004
10
-107.07123799999998
20
-0.14068799999999548
0
LWPOLYLINE
5
174
100
AcDbEntity
8
0
100
AcDbPolyline
90
4
70
1
43
0.0
10
132.33566200000001
20
-9.2243880000000011
10
129.96666200000004
20
3.5579120000000053
10
145.40466200000003
20
6.4190120000000039
10
147.773662
20
-6.3632879999999936
0
LWPOLYLINE
5
175
100
AcDbEntity
8
0
100
AcDbPolyline
90
4
70
1
43
0.0
10
101.01666200000004
20
-29.216888000000001
10
96.953662000000023
20
-14.051888000000003
10
109.51066200000002
20
-10.687188000000001
10
113.57366200000001
20
-25.852287999999994
0
LWPOLYLINE
5
176
100
AcDbEntity
8
0
100
AcDbPolyline
90
4
70
1
43
0.0
10
99.572662000000037
20
29.951212000000005
10
102.71766200000002
20
17.337312000000004
10
87.483662000000038
20
13.539112000000015
10
84.338662000000042
20
26.153212000000011
0
LWPOLYLINE
5
177
100
AcDbEntity
8
0
100
AcDbPolyline
90
4
70
1
43
0.0
10
68.169662000000031
20
-1.9553879999999957
10
71.533662000000007
20
-14.512387999999996
10
56.368662000000036
20
-18.575888000000003
10
53.004662000000025
20
-6.0188880000000022
0
LWPOLYLINE
5
178
100
AcDbEntity
8
0
100
AcDbPolyline
90
4
70
1
43
0.0
10
126.72666200000002
20
-0.17838799999998933
10
111.42966200000001
20
-3.7100879999999936
10
108.50466200000007
20
8.9567119999999978
10
123.80266200000001
20
12.488412000000002
0
LWPOLYLINE
5
179
100
AcDbEntity
8
0
100
AcDbPolyline
90
174
70
1
43
0.0
10
-9.999837999999988
20
17.26669258867263
10
-9.9998379999999898
20
41.392789000000008
10
-12.93241000000001
20
41.392789000000008
42
-0.99999999999999989
10
-12.93241000000001
20
46.392789000000008
10
-9.9998379999999898
20
46.392789000000008
10
-9.9998379999999898
20
54.406604929718291
10
-19.445158336773531
20
55.07067994663042
10
-30.031943519666868
20
56.378964213351651
10
-40.535035077731195
20
58.243554299586719
10
-50.807369501192134
20
60.632063465769988
10
-60.690766322436758
20
64.267173699300358
10
-71.0299147091702
20
67.475613618773437
10
-81.506599676410033
20
70.144465413848323
10
-92.099630912128916
20
72.270056306392362
10
-102.78782883857349
20
73.848714855302674
10
-113.55001152074097
20
74.876771026975788
10
-124.3649900403632
20
75.350550650147696
10
-135.21952424155853
20
75.266320240024186
10
-140.62483662109901
20
74.920825235936505
10
-146.07562972229624
20
74.240486649670203
10
-148.00324097128254
20
73.803749697499754
10
-149.89475110717109
20
73.093538005683712
10
-151.65802473814591
20
72.14365310951689
10
-153.27165166299397
20
70.971999101981879
10
-154.71498108303865
20
69.595942974387157
10
-155.96721629141805
20
68.032670527878494
10
-157.00689573174759
20
66.300014820383979
10
-157.77167984554868
20
64.511721407962625
10
-159.84176732436617
20
58.330662957476854
10
-161.72541495763838
20
52.198435054997745
10
-163.4538334564366
20
46.022695397961073
10
-165.0263151953431
20
39.806409281429886
10
-166.44215153569127
20
33.552539755553525
10
-167.70063364124908
20
27.26405459891593
10
-168.80105484070958
20
20.943917712106416
10
-169.74600641207155
20
14.572836452271725
10
-170.55691859268171
20
7.2033011157464948
10
-171.00446631436355
20
-0.31688190492405344
10
-170.91756786329128
20
-2.2677091750848533
10
-170.51337481769446
20
-4.2444807878739699
10
-169.81676185636906
20
-6.1135366986766559
10
-168.84830893254923
20
-7.8441012247045183
10
-167.62768443738466
20
-9.407036452635511
10
-166.17411594855122
20
-10.772902610661816
10
-164.50800132280852
20
-11.910777663687302
10
-162.7306171966822
20
-12.751788077396276
10
-159.55068053302534
20
-13.842294081541313
10
-156.60814009840837
20
-14.641541559647827
10
-151.45971583853057
20
-15.57592094053768
10
-145.08426489515648
20
-16.123385182012562
10
-140.18386706276462
20
-16.256979261614322
10
-133.31617811720955
20
-16.062230330627777
10
-127.71541485454831
20
-15.447224018522242
10
-122.85790316126014
20
-14.56530280979203
10
-117.9857532658619
20
-13.542610836120792
10
-117.18293512125146
20
-13.307161328477402
10
-116.97452534088883
20
-13.302114384006622
10
-116.77175471619648
20
-13.350528032647722
10
-116.57859592535962
20
-13.454910559171465
10
-116.4191995296442
20
-13.605899428725703
10
-116.30998351684869
20
-13.783472982766934
10
-116.2498060201855
20
-13.98307036375941
10
-116.24462258315445
20
-14.14623207627427
10
-118.78903036904512
20
-23.642029087960445
10
-119.03263095129013
20
-25.467918353381087
10
-118.77894693630327
20
-27.503591253748887
10
-118.02138427354362
20
-29.410010534906412
10
-116.31879920123588
20
-31.721496967230518
10
-101.36110828336703
20
-35.729370367206101
10
-94.132912057323409
20
-37.940740750419401
10
-87.162353137973895
20
-40.620132832884217
10
-80.412080965901126
20
-43.772050359548075
10
-73.905537081068701
20
-47.382395689043399
10
-67.66619349937973
20
-51.437059166658145
10
-61.717516758644337
20
-55.921922827645702
10
-56.082949516078401
20
-60.822889752123913
10
-50.674170113109369
20
-66.237748841469312
10
-48.628327759477294
20
-68.2156823617524
10
-46.268278503342657
20
-70.061010741808062
10
-43.728193445391746
20
-71.649418261767138
10
-41.032550419598209
20
-72.964641983718195
10
-37.159928348365838
20
-74.383389767560914
10
-33.178184890941431
20
-75.40355646572921
10
-29.114349110661809
20
-76.020205968239068
10
-25.089788041927406
20
-76.22256800000001
10
25.091108188872411
20
-76.22256800000001
10
29.115669271317405
20
-76.020214598800649
10
33.179511281985668
20
-75.403566510021335
10
37.161259038894244
20
-74.383395421125584
10
41.033870053365511
20
-72.964643202429173
10
43.729514110933465
20
-71.649433746890253
10
46.269611820065663
20
-70.061023895297311
10
48.629667071814225
20
-68.215684460601921
10
50.675499606444568
20
-66.237743341959401
10
56.084273516078468
20
-60.822889752123864
10
61.71884075864444
20
-55.921922827645638
10
67.667517499379827
20
-51.437059166658123
10
73.906861081068655
20
-47.382395689043442
10
80.413404965901236
20
-43.772050359548054
10
87.163677137974048
20
-40.620132832884167
10
94.134236057323335
20
-37.940740750419486
10
101.36243540251272
20
-35.729369412945061
10
116.31998469123211
20
-31.721504919836523
10
118.02261003038595
20
-29.410064694883921
10
118.78020445824151
20
-27.503602128669229
10
119.03388333309621
20
-25.46787189625767
10
118.79024212495084
20
-23.641974816543758
10
116.24574651268512
20
-14.14621220555186
10
116.25092964511143
20
-13.983053306576473
10
116.31110952715679
20
-13.783448902831221
10
116.42033055069705
20
-13.605868564447121
10
116.57973198315455
20
-13.454876634913582
10
116.77289571673123
20
-13.350493844791904
10
116.97567719376545
20
-13.302080242244028
10
117.1840945477352
20
-13.307130021102495
10
117.98694775066606
20
-13.542604690228233
10
122.85913444714572
20
-14.565302642660498
10
127.71662139519688
20
-15.44722312378064
10
133.31726983349603
20
-16.062229981280261
10
140.1846897350037
20
-16.256979341394334
10
145.0849976974983
20
-16.123385577820549
10
151.46116057091902
20
-15.575920760718365
10
156.60901950520284
20
-14.641533134708791
10
159.55154391320184
20
-13.842304023931433
10
162.73163086812048
20
-12.751801785826187
10
164.5090325930604
20
-11.910789324450848
10
166.17515776033869
20
-10.772934549825193
10
167.62876299589124
20
-9.4070820841159364
10
168.8494354841003
20
-7.8441386495744769
10
169.8179313643613
20
-6.1135295627676722
10
170.51454852979106
20
-4.2443879474387236
10
170.91868203009818
20
-2.2674936790982558
10
171.00542115656296
20
-0.31675272920946851
10
170.55793561211829
20
7.2033799323701286
10
169.74664058790268
20
14.572893746215376
10
168.80183405108866
20
20.943848103571728
10
167.70154151989851
20
27.263985844998547
10
166.44318322235085
20
33.552475758379778
10
165.02745855414531
20
39.806353811587925
10
163.45506902332133
20
46.022652329700392
10
161.72671507265548
20
52.198407797785997
10
159.84309811835286
20
58.330654700386916
10
157.77291836124047
20
64.511976379193655
10
157.00776719069722
20
66.30039316611915
10
155.96799188560902
20
68.032859097976498
10
154.71575727064223
20
69.596000718889755
10
153.27249120183242
20
70.971982618416916
10
151.65896225172108
20
72.143608576816732
10
149.8958011241204
20
73.093496116894443
10
148.00440622350476
20
73.803725477483667
10
146.07688128421316
20
74.24048411269473
10
140.62583981736219
20
74.920825782647157
10
135.22054839777579
20
75.266320244910915
10
124.36593123541235
20
75.350550643028328
10
113.55091211299077
20
74.876771068559535
10
102.78871161902997
20
73.848714944831471
10
92.10049485064259
20
72.270056618449672
10
81.507422750563222
20
70.144466508972599
10
71.030654899045729
20
67.475616666965024
10
60.691359528140353
20
64.267180704712658
10
50.807706989569894
20
60.632066515024263
10
40.535359086577209
20
58.24355010613067
10
30.032268539700944
20
56.37895823440077
10
19.445483342084682
20
55.070676052283929
10
10.000162000000019
20
54.406604450672411
10
10.000162000000014
20
46.392789000000008
10
13.067589999999987
20
46.392789000000008
42
-0.99999999999999989
10
13.067589999999987
20
41.392789000000008
10
10.000162000000014
20
41.392789000000008
10
10.000161999999984
20
17.207825021523671
42
-0.86499780212146138
10
-1.2514100000000195
20
-44.111650596140066
10
-1.2514100000000139
20
-47.787210999999992
42
-0.99999999999999989
10
-4.7514100000000141
20
-47.787211000000013
10
-4.7514100000000301
20
-43.786005957742148
42
-0.78936335348583597
0
ENDSEC
0
SECTION
2
OBJECTS
0
DICTIONARY
5
C
100
AcDbDictionary
3
ACAD_GROUP
350
D
3
ACAD_MLINESTYLE
350
17
0
DICTIONARY
5
D
100
AcDbDictionary
0
DICTIONARY
5
1A
330
C
100
AcDbDictionary
0
DICTIONARY
5
17
100
AcDbDictionary
0
ENDSEC
0
EOF
